<mxfile host="app.diagrams.net" modified="2024-01-23T15:41:12.938Z" agent="Mozilla/5.0 (Macintosh; Intel Mac OS X 10.15; rv:121.0) Gecko/20100101 Firefox/121.0" etag="tyqXfOt-B9WyAASuH8yK" version="22.1.21" type="github">
  <diagram name="Page-1" id="e7e014a7-5840-1c2e-5031-d8a46d1fe8dd">
    <mxGraphModel dx="1237" dy="854" grid="1" gridSize="10" guides="1" tooltips="1" connect="1" arrows="1" fold="1" page="1" pageScale="1" pageWidth="1169" pageHeight="826" background="none" math="0" shadow="0">
      <root>
        <mxCell id="0" />
        <mxCell id="1" parent="0" />
        <mxCell id="2" value="{{ general.hand }} {{ general.first_player }}" style="swimlane;whiteSpace=wrap" parent="1" vertex="1">
          <mxGeometry x="444.5" y="128" width="280" height="570" as="geometry" />
        </mxCell>
        <mxCell id="dYky7ozjCTGvR8onbQTt-42" value="&lt;div&gt;Закрытая карта&lt;/div&gt;" style="swimlane;horizontal=0;whiteSpace=wrap;html=1;rotation=-180;" parent="2" vertex="1">
          <mxGeometry x="40" y="102" width="200" height="122" as="geometry" />
        </mxCell>
        <mxCell id="dYky7ozjCTGvR8onbQTt-43" value="&lt;div&gt;Закрытая карта&lt;/div&gt;" style="swimlane;horizontal=0;whiteSpace=wrap;html=1;rotation=-180;" parent="2" vertex="1">
          <mxGeometry x="40" y="225" width="200" height="122" as="geometry" />
        </mxCell>
        <mxCell id="dYky7ozjCTGvR8onbQTt-52" value="&lt;div&gt;Закрытая карта&lt;/div&gt;" style="swimlane;horizontal=0;whiteSpace=wrap;html=1;rotation=-180;" parent="2" vertex="1">
          <mxGeometry x="40" y="347" width="200" height="122" as="geometry" />
        </mxCell>
        <mxCell id="3" value="Стол Алисы" style="swimlane;whiteSpace=wrap" parent="1" vertex="1">
          <mxGeometry x="724.5" y="128" width="280" height="570" as="geometry" />
        </mxCell>
        <mxCell id="dYky7ozjCTGvR8onbQTt-59" value="&lt;div&gt;Компонент&lt;/div&gt;" style="swimlane;horizontal=0;whiteSpace=wrap;html=1;rotation=-180;fillColor=#e1d5e7;strokeColor=#9673a6;" parent="3" vertex="1">
          <mxGeometry x="40.5" y="224" width="200" height="122" as="geometry" />
        </mxCell>
        <mxCell id="dYky7ozjCTGvR8onbQTt-60" value="&lt;div align=&quot;center&quot; style=&quot;font-size: 20px;&quot;&gt;&lt;font style=&quot;font-size: 20px;&quot;&gt;Бекенд&lt;br&gt;&lt;/font&gt;&lt;/div&gt;&lt;div align=&quot;center&quot;&gt;&lt;br&gt;&lt;/div&gt;" style="text;strokeColor=none;fillColor=none;align=center;verticalAlign=middle;spacingLeft=4;spacingRight=4;overflow=hidden;points=[[0,0.5],[1,0.5]];portConstraint=eastwest;rotatable=0;whiteSpace=wrap;html=1;rotation=-270;" parent="dYky7ozjCTGvR8onbQTt-59" vertex="1">
          <mxGeometry x="26" y="46" width="140" height="30" as="geometry" />
        </mxCell>
        <mxCell id="dYky7ozjCTGvR8onbQTt-41" value="Сброс" style="swimlane;whiteSpace=wrap" parent="1" vertex="1">
          <mxGeometry x="1004.5" y="128" width="280" height="570" as="geometry" />
        </mxCell>
        <mxCell id="dYky7ozjCTGvR8onbQTt-74" value="Рука Бориса" style="swimlane;whiteSpace=wrap" parent="1" vertex="1">
          <mxGeometry x="1284.5" y="128" width="280" height="570" as="geometry" />
        </mxCell>
        <mxCell id="dYky7ozjCTGvR8onbQTt-75" value="&lt;div&gt;Закрытая карта&lt;/div&gt;" style="swimlane;horizontal=0;whiteSpace=wrap;html=1;rotation=0;" parent="dYky7ozjCTGvR8onbQTt-74" vertex="1">
          <mxGeometry x="40" y="102" width="200" height="122" as="geometry" />
        </mxCell>
        <mxCell id="dYky7ozjCTGvR8onbQTt-76" value="&lt;div&gt;Закрытая карта&lt;/div&gt;" style="swimlane;horizontal=0;whiteSpace=wrap;html=1;rotation=0;" parent="dYky7ozjCTGvR8onbQTt-74" vertex="1">
          <mxGeometry x="40" y="225" width="200" height="122" as="geometry" />
        </mxCell>
        <mxCell id="RGcuCvIUBXCjisr0QKUh-6" value="Атака" style="swimlane;horizontal=0;whiteSpace=wrap;html=1;rotation=0;fillColor=#f8cecc;strokeColor=#b85450;" vertex="1" parent="dYky7ozjCTGvR8onbQTt-74">
          <mxGeometry x="5.5" y="392" width="200" height="122" as="geometry" />
        </mxCell>
        <mxCell id="RGcuCvIUBXCjisr0QKUh-7" value="&lt;div align=&quot;center&quot; style=&quot;font-size: 20px;&quot;&gt;&lt;font style=&quot;font-size: 20px;&quot;&gt;Ошибка&lt;br&gt;&lt;/font&gt;&lt;/div&gt;&lt;div align=&quot;center&quot;&gt;&lt;br&gt;&lt;/div&gt;" style="text;strokeColor=none;fillColor=none;align=center;verticalAlign=middle;spacingLeft=4;spacingRight=4;overflow=hidden;points=[[0,0.5],[1,0.5]];portConstraint=eastwest;rotatable=0;whiteSpace=wrap;html=1;rotation=-90;" vertex="1" parent="RGcuCvIUBXCjisr0QKUh-6">
          <mxGeometry x="30" y="46" width="140" height="30" as="geometry" />
        </mxCell>
        <mxCell id="RGcuCvIUBXCjisr0QKUh-8" style="edgeStyle=orthogonalEdgeStyle;rounded=0;orthogonalLoop=1;jettySize=auto;html=1;exitX=0;exitY=0.5;exitDx=0;exitDy=0;entryX=1;entryY=0.5;entryDx=0;entryDy=0;strokeWidth=3;" edge="1" parent="1" source="RGcuCvIUBXCjisr0QKUh-6" target="dYky7ozjCTGvR8onbQTt-60">
          <mxGeometry relative="1" as="geometry" />
        </mxCell>
      </root>
    </mxGraphModel>
  </diagram>
</mxfile>
